<svg width="136" height="16" viewBox="0 0 136 16" fill="none" xmlns="http://www.w3.org/2000/svg">
<path d="M5.22 4.48C6.52667 4.48 7.56 4.86 8.32 5.62C9.08 6.38 9.46 7.47333 9.46 8.9V15H8.46V8.98C8.46 7.80667 8.16 6.91333 7.56 6.3C6.97333 5.68667 6.14667 5.38 5.08 5.38C3.85333 5.38 2.88667 5.74667 2.18 6.48C1.47333 7.21333 1.12 8.2 1.12 9.44V15H0.12V4.56H1.08V6.82C1.44 6.08667 1.97333 5.51333 2.68 5.1C3.4 4.68667 4.24667 4.48 5.22 4.48ZM22.4166 10.02H13.4366C13.4632 10.8333 13.6699 11.56 14.0566 12.2C14.4432 12.8267 14.9632 13.3133 15.6166 13.66C16.2832 14.0067 17.0299 14.18 17.8566 14.18C18.5366 14.18 19.1632 14.06 19.7366 13.82C20.3232 13.5667 20.8099 13.2 21.1966 12.72L21.7766 13.38C21.3232 13.9267 20.7499 14.3467 20.0566 14.64C19.3766 14.9333 18.6366 15.08 17.8366 15.08C16.7966 15.08 15.8699 14.8533 15.0566 14.4C14.2432 13.9467 13.6032 13.32 13.1366 12.52C12.6832 11.72 12.4566 10.8067 12.4566 9.78C12.4566 8.76667 12.6699 7.86 13.0966 7.06C13.5366 6.24667 14.1366 5.61333 14.8966 5.16C15.6566 4.70667 16.5099 4.48 17.4566 4.48C18.4032 4.48 19.2499 4.70667 19.9966 5.16C20.7566 5.6 21.3499 6.22 21.7766 7.02C22.2166 7.82 22.4366 8.72667 22.4366 9.74L22.4166 10.02ZM17.4566 5.36C16.7232 5.36 16.0632 5.52667 15.4766 5.86C14.8899 6.18 14.4166 6.64 14.0566 7.24C13.7099 7.82667 13.5099 8.49333 13.4566 9.24H21.4566C21.4166 8.49333 21.2166 7.82667 20.8566 7.24C20.4966 6.65333 20.0232 6.19333 19.4366 5.86C18.8499 5.52667 18.1899 5.36 17.4566 5.36ZM30.7102 14.34C30.4568 14.58 30.1368 14.7667 29.7502 14.9C29.3768 15.02 28.9835 15.08 28.5702 15.08C27.6635 15.08 26.9635 14.8333 26.4702 14.34C25.9768 13.8333 25.7302 13.1333 25.7302 12.24V5.42H23.8102V4.56H25.7302V2.28H26.7302V4.56H30.0502V5.42H26.7302V12.14C26.7302 12.82 26.8902 13.34 27.2102 13.7C27.5435 14.0467 28.0302 14.22 28.6702 14.22C29.3235 14.22 29.8635 14.0267 30.2902 13.64L30.7102 14.34ZM36.3655 0.94C35.0588 0.94 34.4055 1.64 34.4055 3.04V4.56H37.7455V5.42H34.4255V15H33.4255V5.42H31.5055V4.56H33.4255V2.96C33.4255 2.08 33.6788 1.38 34.1855 0.86C34.6921 0.339999 35.4055 0.079999 36.3255 0.079999C36.7255 0.079999 37.1055 0.139999 37.4655 0.259999C37.8388 0.366666 38.1455 0.533333 38.3855 0.76L37.9855 1.52C37.5588 1.13333 37.0188 0.94 36.3655 0.94ZM39.7855 0.159999H40.7855V15H39.7855V0.159999ZM45.0028 4.56H46.0028V15H45.0028V4.56ZM45.5028 2.02C45.2761 2.02 45.0828 1.94667 44.9228 1.8C44.7628 1.64 44.6828 1.44667 44.6828 1.22C44.6828 0.993333 44.7628 0.799999 44.9228 0.639999C45.0828 0.479999 45.2761 0.4 45.5028 0.4C45.7295 0.4 45.9228 0.479999 46.0828 0.639999C46.2428 0.786666 46.3228 0.973333 46.3228 1.2C46.3228 1.42667 46.2428 1.62 46.0828 1.78C45.9228 1.94 45.7295 2.02 45.5028 2.02ZM56.8577 15L53.2777 10.34L49.6977 15H48.5577L52.6977 9.62L48.7777 4.56H49.9177L53.2777 8.9L56.6377 4.56H57.7577L53.8377 9.62L58.0377 15H56.8577ZM61.5488 6.84C61.8688 6.08 62.3688 5.5 63.0488 5.1C63.7288 4.68667 64.5554 4.48 65.5288 4.48V5.46L65.2888 5.44C64.1288 5.44 63.2221 5.80667 62.5688 6.54C61.9154 7.26 61.5888 8.26667 61.5888 9.56V15H60.5888V4.56H61.5488V6.84ZM72.2664 15.08C71.2797 15.08 70.3864 14.8533 69.5864 14.4C68.7997 13.9467 68.1797 13.32 67.7264 12.52C67.2731 11.7067 67.0464 10.7933 67.0464 9.78C67.0464 8.76667 67.2731 7.86 67.7264 7.06C68.1797 6.24667 68.7997 5.61333 69.5864 5.16C70.3864 4.70667 71.2797 4.48 72.2664 4.48C73.2531 4.48 74.1397 4.70667 74.9264 5.16C75.7264 5.61333 76.3531 6.24667 76.8064 7.06C77.2597 7.86 77.4864 8.76667 77.4864 9.78C77.4864 10.7933 77.2597 11.7067 76.8064 12.52C76.3531 13.32 75.7264 13.9467 74.9264 14.4C74.1397 14.8533 73.2531 15.08 72.2664 15.08ZM72.2664 14.18C73.0664 14.18 73.7797 13.9933 74.4064 13.62C75.0464 13.2467 75.5464 12.7267 75.9064 12.06C76.2797 11.3933 76.4664 10.6333 76.4664 9.78C76.4664 8.92667 76.2797 8.16667 75.9064 7.5C75.5464 6.83333 75.0464 6.31333 74.4064 5.94C73.7797 5.56667 73.0664 5.38 72.2664 5.38C71.4664 5.38 70.7464 5.56667 70.1064 5.94C69.4797 6.31333 68.9797 6.83333 68.6064 7.5C68.2464 8.16667 68.0664 8.92667 68.0664 9.78C68.0664 10.6333 68.2464 11.3933 68.6064 12.06C68.9797 12.7267 69.4797 13.2467 70.1064 13.62C70.7464 13.9933 71.4664 14.18 72.2664 14.18ZM89.7288 4.56V15H88.7688V12.76C88.4221 13.4933 87.9088 14.0667 87.2288 14.48C86.5488 14.88 85.7488 15.08 84.8288 15.08C83.4688 15.08 82.4021 14.7 81.6288 13.94C80.8554 13.18 80.4688 12.0867 80.4688 10.66V4.56H81.4688V10.58C81.4688 11.7533 81.7688 12.6467 82.3688 13.26C82.9688 13.8733 83.8154 14.18 84.9088 14.18C86.0821 14.18 87.0088 13.8133 87.6888 13.08C88.3821 12.3467 88.7288 11.36 88.7288 10.12V4.56H89.7288ZM93.9677 0.159999H94.9677V15H93.9677V0.159999ZM108.003 10.02H99.0225C99.0492 10.8333 99.2558 11.56 99.6425 12.2C100.029 12.8267 100.549 13.3133 101.203 13.66C101.869 14.0067 102.616 14.18 103.443 14.18C104.123 14.18 104.749 14.06 105.323 13.82C105.909 13.5667 106.396 13.2 106.783 12.72L107.363 13.38C106.909 13.9267 106.336 14.3467 105.643 14.64C104.963 14.9333 104.223 15.08 103.423 15.08C102.383 15.08 101.456 14.8533 100.643 14.4C99.8292 13.9467 99.1892 13.32 98.7225 12.52C98.2692 11.72 98.0425 10.8067 98.0425 9.78C98.0425 8.76667 98.2558 7.86 98.6825 7.06C99.1225 6.24667 99.7225 5.61333 100.483 5.16C101.243 4.70667 102.096 4.48 103.043 4.48C103.989 4.48 104.836 4.70667 105.583 5.16C106.343 5.6 106.936 6.22 107.363 7.02C107.803 7.82 108.023 8.72667 108.023 9.74L108.003 10.02ZM103.043 5.36C102.309 5.36 101.649 5.52667 101.063 5.86C100.476 6.18 100.003 6.64 99.6425 7.24C99.2958 7.82667 99.0958 8.49333 99.0425 9.24H107.043C107.003 8.49333 106.803 7.82667 106.443 7.24C106.083 6.65333 105.609 6.19333 105.023 5.86C104.436 5.52667 103.776 5.36 103.043 5.36ZM116.296 14.34C116.043 14.58 115.723 14.7667 115.336 14.9C114.963 15.02 114.569 15.08 114.156 15.08C113.249 15.08 112.549 14.8333 112.056 14.34C111.563 13.8333 111.316 13.1333 111.316 12.24V5.42H109.396V4.56H111.316V2.28H112.316V4.56H115.636V5.42H112.316V12.14C112.316 12.82 112.476 13.34 112.796 13.7C113.129 14.0467 113.616 14.22 114.256 14.22C114.909 14.22 115.449 14.0267 115.876 13.64L116.296 14.34ZM123.991 14.34C123.738 14.58 123.418 14.7667 123.031 14.9C122.658 15.02 122.265 15.08 121.851 15.08C120.945 15.08 120.245 14.8333 119.751 14.34C119.258 13.8333 119.011 13.1333 119.011 12.24V5.42H117.091V4.56H119.011V2.28H120.011V4.56H123.331V5.42H120.011V12.14C120.011 12.82 120.171 13.34 120.491 13.7C120.825 14.0467 121.311 14.22 121.951 14.22C122.605 14.22 123.145 14.0267 123.571 13.64L123.991 14.34ZM135.229 10.02H126.249C126.276 10.8333 126.482 11.56 126.869 12.2C127.256 12.8267 127.776 13.3133 128.429 13.66C129.096 14.0067 129.842 14.18 130.669 14.18C131.349 14.18 131.976 14.06 132.549 13.82C133.136 13.5667 133.622 13.2 134.009 12.72L134.589 13.38C134.136 13.9267 133.562 14.3467 132.869 14.64C132.189 14.9333 131.449 15.08 130.649 15.08C129.609 15.08 128.682 14.8533 127.869 14.4C127.056 13.9467 126.416 13.32 125.949 12.52C125.496 11.72 125.269 10.8067 125.269 9.78C125.269 8.76667 125.482 7.86 125.909 7.06C126.349 6.24667 126.949 5.61333 127.709 5.16C128.469 4.70667 129.322 4.48 130.269 4.48C131.216 4.48 132.062 4.70667 132.809 5.16C133.569 5.6 134.162 6.22 134.589 7.02C135.029 7.82 135.249 8.72667 135.249 9.74L135.229 10.02ZM130.269 5.36C129.536 5.36 128.876 5.52667 128.289 5.86C127.702 6.18 127.229 6.64 126.869 7.24C126.522 7.82667 126.322 8.49333 126.269 9.24H134.269C134.229 8.49333 134.029 7.82667 133.669 7.24C133.309 6.65333 132.836 6.19333 132.249 5.86C131.662 5.52667 131.002 5.36 130.269 5.36Z" fill="#F65261"/>
</svg>
